<svg width="24" height="28" viewBox="0 0 24 28" fill="none" xmlns="http://www.w3.org/2000/svg">
<path d="M21.4703 22.9021H20.7517L18.5907 8.34335C18.4297 7.26284 17.4769 6.85965 16.7744 6.65073C13.3812 5.6394 10.0158 5.64076 6.77319 6.65206C6.06396 6.87295 5.10322 7.29211 4.95684 8.36863L2.98345 22.9021H2.21699C1.13515 22.9021 0.25559 23.7817 0.25559 24.8635V25.5528C0.25559 26.6347 1.13515 27.5142 2.21699 27.5142H21.4716C22.5534 27.5142 23.433 26.6347 23.433 25.5528V24.8635C23.433 23.7817 22.5534 22.9021 21.4716 22.9021L21.4703 22.9021ZM5.69919 8.46837C5.76971 7.95075 6.14496 7.63272 6.99526 7.36657C10.0931 6.40052 13.3106 6.40052 16.5587 7.3679C17.3864 7.61407 17.7709 7.93876 17.8468 8.45107L19.9918 22.9008L3.74038 22.9021L5.69912 8.46977L5.69919 8.46837ZM22.6813 25.5513C22.6813 26.2193 22.1384 26.7622 21.4704 26.7622H2.21682C1.54884 26.7622 1.00591 26.2193 1.00591 25.5513V24.862C1.00591 24.1941 1.54884 23.6511 2.21682 23.6511H21.4714C22.1394 23.6511 22.6823 24.1941 22.6823 24.862V25.5513H22.6813ZM11.9668 8.84479C11.1538 8.84479 10.4925 9.50613 10.4925 10.3192V16.335C10.4925 17.1481 11.1538 17.8094 11.9668 17.8094C12.7799 17.8094 13.4412 17.1481 13.4412 16.335V10.3192C13.4412 9.50613 12.7799 8.84479 11.9668 8.84479ZM12.6907 16.335C12.6907 16.7342 12.366 17.0589 11.9668 17.0589C11.5676 17.0589 11.2429 16.7342 11.2429 16.335V10.3191C11.2429 9.91992 11.5676 9.59524 11.9668 9.59524C12.366 9.59524 12.6907 9.91993 12.6907 10.3191V16.335ZM11.9668 18.1886C11.1538 18.1886 10.4925 18.85 10.4925 19.663V19.7255C10.4925 20.5386 11.1538 21.1999 11.9668 21.1999C12.7799 21.1999 13.4412 20.5386 13.4412 19.7255V19.663C13.4412 18.85 12.7799 18.1886 11.9668 18.1886ZM12.6907 19.7255C12.6907 20.1248 12.366 20.4494 11.9668 20.4494C11.5676 20.4494 11.2429 20.1247 11.2429 19.7255V19.663C11.2429 19.2638 11.5676 18.9391 11.9668 18.9391C12.366 18.9391 12.6907 19.2638 12.6907 19.663V19.7255ZM11.6248 3.0977V0.860856C11.6248 0.653271 11.7925 0.485596 12.0001 0.485596C12.2077 0.485596 12.3754 0.65326 12.3754 0.860856V3.0977C12.3754 3.30529 12.2077 3.47297 12.0001 3.47297C11.7925 3.47297 11.6248 3.3053 11.6248 3.0977ZM19.5249 6.4603C19.3891 6.30328 19.4064 6.06644 19.5635 5.93069L21.2574 4.46961C21.4144 4.33388 21.6513 4.35118 21.787 4.5082C21.9228 4.66522 21.9055 4.90206 21.7484 5.03781L20.0545 6.49889C19.984 6.5601 19.8961 6.59071 19.8096 6.59071C19.7045 6.59071 19.5994 6.54679 19.5249 6.4603ZM24 12.8713C24 13.0789 23.8323 13.2466 23.6247 13.2466H21.3879C21.1803 13.2466 21.0126 13.0789 21.0126 12.8713C21.0126 12.6638 21.1803 12.4961 21.3879 12.4961H23.6247C23.8323 12.4961 24 12.6638 24 12.8713ZM2.2515 5.03911C2.09448 4.90338 2.07718 4.6665 2.21291 4.5095C2.34864 4.35248 2.58551 4.33518 2.74252 4.47091L4.43647 5.93199C4.59349 6.06772 4.61079 6.3046 4.47506 6.4616C4.40054 6.5481 4.29542 6.59201 4.1903 6.59201C4.1038 6.59201 4.01598 6.5614 3.94545 6.50019L2.2515 5.03911ZM0.375261 13.2481C0.167675 13.2481 0 13.0804 0 12.8728C0 12.6653 0.167665 12.4976 0.375261 12.4976H2.61211C2.8197 12.4976 2.98737 12.6653 2.98737 12.8728C2.98737 13.0804 2.81971 13.2481 2.61211 13.2481H0.375261ZM3.89623 25.7313C3.89623 25.879 3.77647 26 3.62743 26H3.01797C2.87027 26 2.74918 25.8803 2.74918 25.7313C2.74918 25.5835 2.86894 25.4625 3.01797 25.4625H3.62743C3.77514 25.4625 3.89623 25.5822 3.89623 25.7313ZM11.0499 25.7313C11.0499 25.879 10.9301 26 10.7811 26H4.69333C4.54563 26 4.42454 25.8803 4.42454 25.7313C4.42454 25.5835 4.54429 25.4625 4.69333 25.4625H10.7811C10.9288 25.4625 11.0499 25.5822 11.0499 25.7313Z" fill="#F0F0F0"/>
</svg>
