<svg width="48" height="49" viewBox="0 0 48 49" fill="none" xmlns="http://www.w3.org/2000/svg">
<path d="M24.3823 0.767517C25.045 0.767517 25.5823 1.30476 25.5823 1.96747V4.39954H37.5818V1.96747C37.5818 1.30476 38.1191 0.767517 38.7818 0.767517C39.4445 0.767517 39.9817 1.30476 39.9817 1.96747V4.40881C44.4359 4.61663 47.9833 8.29367 47.9833 12.7992V26.0192C47.9833 26.682 47.4461 27.2192 46.7833 27.2192C46.1206 27.2192 45.5833 26.682 45.5833 26.0192V12.7992C45.5833 9.6194 43.1097 7.01736 39.9817 6.81243V10.2873C39.9817 10.95 39.4445 11.4873 38.7818 11.4873C38.1191 11.4873 37.5818 10.95 37.5818 10.2873V6.79947H25.5823V10.2873C25.5823 10.95 25.045 11.4873 24.3823 11.4873C23.7196 11.4873 23.1823 10.95 23.1823 10.2873V6.79947H11.1828V10.2873C11.1828 10.95 10.6456 11.4873 9.98285 11.4873C9.32013 11.4873 8.78286 10.95 8.78286 10.2873V6.79947H8.39966C5.08612 6.79947 2.39992 9.48566 2.39992 12.7992V40.4109C2.39992 43.7245 5.08612 46.4107 8.39972 46.4107H25.1814C25.8442 46.4107 26.3814 46.9479 26.3814 47.6107C26.3814 48.2734 25.8442 48.8106 25.1814 48.8106H8.39972C3.76067 48.8106 0 45.05 0 40.4109V12.7992C0 8.16022 3.76067 4.39954 8.39966 4.39954H8.78286V1.96747C8.78286 1.30476 9.32013 0.767517 9.98285 0.767517C10.6456 0.767517 11.1828 1.30476 11.1828 1.96747V4.39954H23.1823V1.96747C23.1823 1.30476 23.7196 0.767517 24.3823 0.767517Z" fill="#F0F0F0"/>
<path d="M8.90308 20.2189C10.0959 20.2189 11.063 19.2519 11.063 18.059C11.063 16.8662 10.0959 15.8991 8.90308 15.8991C7.71017 15.8991 6.74316 16.8662 6.74316 18.059C6.74316 19.2519 7.71017 20.2189 8.90308 20.2189Z" fill="#F0F0F0"/>
<path d="M21.3823 18.059C21.3823 19.2519 20.4153 20.2189 19.2224 20.2189C18.0296 20.2189 17.0625 19.2519 17.0625 18.059C17.0625 16.8662 18.0296 15.8991 19.2224 15.8991C20.4153 15.8991 21.3823 16.8662 21.3823 18.059Z" fill="#F0F0F0"/>
<path d="M29.5427 20.2189C30.7356 20.2189 31.7027 19.2519 31.7027 18.059C31.7027 16.8662 30.7356 15.8991 29.5427 15.8991C28.3498 15.8991 27.3828 16.8662 27.3828 18.059C27.3828 19.2519 28.3498 20.2189 29.5427 20.2189Z" fill="#F0F0F0"/>
<path d="M42.022 18.059C42.022 19.2519 41.0549 20.2189 39.8621 20.2189C38.6692 20.2189 37.7021 19.2519 37.7021 18.059C37.7021 16.8662 38.6692 15.8991 39.8621 15.8991C41.0549 15.8991 42.022 16.8662 42.022 18.059Z" fill="#F0F0F0"/>
<path d="M8.90308 30.9086C10.0959 30.9086 11.063 29.9415 11.063 28.7487C11.063 27.5558 10.0959 26.5888 8.90308 26.5888C7.71017 26.5888 6.74316 27.5558 6.74316 28.7487C6.74316 29.9415 7.71017 30.9086 8.90308 30.9086Z" fill="#F0F0F0"/>
<path d="M21.3823 28.7487C21.3823 29.9415 20.4153 30.9086 19.2224 30.9086C18.0296 30.9086 17.0625 29.9415 17.0625 28.7487C17.0625 27.5558 18.0296 26.5888 19.2224 26.5888C20.4153 26.5888 21.3823 27.5558 21.3823 28.7487Z" fill="#F0F0F0"/>
<path d="M8.90308 41.5982C10.0959 41.5982 11.063 40.6312 11.063 39.4383C11.063 38.2454 10.0959 37.2784 8.90308 37.2784C7.71017 37.2784 6.74316 38.2454 6.74316 39.4383C6.74316 40.6312 7.71017 41.5982 8.90308 41.5982Z" fill="#F0F0F0"/>
<path d="M21.3823 39.4383C21.3823 40.6312 20.4153 41.5982 19.2224 41.5982C18.0296 41.5982 17.0625 40.6312 17.0625 39.4383C17.0625 38.2454 18.0296 37.2784 19.2224 37.2784C20.4153 37.2784 21.3823 38.2454 21.3823 39.4383Z" fill="#F0F0F0"/>
<path d="M42.3816 36.9891C42.3816 37.6518 41.8444 38.189 41.1817 38.189H36.1911C35.5284 38.189 34.9912 37.6518 34.9912 36.9891V31.9986C34.9912 31.3358 35.5284 30.7986 36.1911 30.7986C36.8539 30.7986 37.3911 31.3358 37.3911 31.9986V35.7891H41.1817C41.8444 35.7891 42.3816 36.3264 42.3816 36.9891Z" fill="#F0F0F0"/>
<path fill-rule="evenodd" clip-rule="evenodd" d="M48.0005 36.989C48.0005 43.5109 42.7134 48.7979 36.1916 48.7979C29.6698 48.7979 24.3828 43.5109 24.3828 36.989C24.3828 30.4672 29.6698 25.1802 36.1916 25.1802C42.7134 25.1802 48.0005 30.4672 48.0005 36.989ZM45.6005 36.989C45.6005 42.1855 41.3881 46.398 36.1916 46.398C30.9952 46.398 26.7827 42.1855 26.7827 36.989C26.7827 31.7926 30.9952 27.5801 36.1916 27.5801C41.3881 27.5801 45.6005 31.7926 45.6005 36.989Z" fill="#F0F0F0"/>
</svg>
