<svg width="40" height="29" viewBox="0 0 40 29" fill="none" xmlns="http://www.w3.org/2000/svg">
<path d="M39.5714 2.44648C38.8857 1.00365 37.4143 0.00360107 35.7143 0.00360107H4.28571C2.58569 0.00360107 1.11429 1.0036 0.428571 2.44648C0.157143 3.00365 0 3.63222 0 4.28932V24.2893C0 26.6464 1.92859 28.575 4.28571 28.575H35.7143C38.0714 28.575 40 26.6464 40 24.2893V4.28932C40 3.63217 39.8429 3.0036 39.5714 2.44648ZM34.9141 2.86077L20.9712 15.7321C20.4283 16.2321 19.5712 16.2321 19.0283 15.7321L5.08549 2.86077H34.9141ZM2.85691 4.68934L12.1424 13.2608L2.9424 24.7607C2.88526 24.6178 2.85669 24.4607 2.85669 24.2892L2.85691 4.68934ZM5.82834 25.7179L14.2425 15.1895L17.0997 17.8323C17.9139 18.5894 18.9568 18.9609 19.9997 18.9609C21.0426 18.9609 22.0854 18.5895 22.8997 17.8323L25.7568 15.1895L34.171 25.7179H5.82834ZM37.1426 24.2893C37.1426 24.4608 37.1141 24.6179 37.0569 24.7607L27.8569 13.2609L37.1424 4.68943L37.1426 24.2893Z" fill="#F0F0F0"/>
</svg>
