<svg width="32" height="42" viewBox="0 0 32 42" fill="none" xmlns="http://www.w3.org/2000/svg">
<path d="M16 0.92572C11.7491 0.940266 7.67626 2.64026 4.67641 5.65286C1.67824 8.6656 -0.00371746 12.7454 6.16952e-06 16.9964C6.16952e-06 23.3727 7.90014 34.16 12.6073 40.0238C13.4309 41.0528 14.68 41.6529 16 41.6529C17.3182 41.6529 18.5673 41.0528 19.3927 40.0238C24.0999 34.1619 32 23.3731 32 16.9964C32.0036 12.7455 30.3218 8.66574 27.3236 5.65286C24.3236 2.64012 20.2509 0.940149 16 0.92572ZM17.1236 38.202C16.8418 38.5311 16.4309 38.7184 16 38.7184C15.5672 38.7184 15.1563 38.5311 14.8763 38.202C7.38158 28.8711 2.90904 20.9439 2.90904 16.9964C2.90904 12.32 5.40359 7.99828 9.45424 5.66031C13.5049 3.32234 18.4943 3.32215 22.5451 5.66031C26.5959 7.99847 29.0903 12.3205 29.0903 16.9964C29.0903 20.9437 24.6176 28.8711 17.123 38.202H17.1236ZM16 8.19842C13.8781 8.19842 11.8436 9.04206 10.3438 10.5421C8.84394 12.0421 8.00012 14.0766 8.00012 16.1983C8.00012 18.3199 8.84375 20.3546 10.3438 21.8544C11.8438 23.3543 13.8783 24.1981 16 24.1981C18.1216 24.1981 20.1563 23.3545 21.6561 21.8544C23.156 20.3544 23.9998 18.3199 23.9998 16.1983C23.998 14.0764 23.1543 12.0437 21.6543 10.5439C20.1543 9.04392 18.1216 8.20024 16 8.19842ZM16 21.2893C13.9418 21.2893 12.0854 20.0493 11.2966 18.1475C10.5093 16.2439 10.9438 14.0548 12.4002 12.5984C13.8565 11.1419 16.0456 10.7074 17.9493 11.4947C19.8511 12.2838 21.0911 14.1402 21.0911 16.1981C21.0911 17.549 20.5548 18.8436 19.6002 19.7981C18.6457 20.7527 17.3509 21.2893 16 21.2893Z" fill="#F0F0F0"/>
</svg>
