<svg width="56" height="57" viewBox="0 0 56 57" fill="none" xmlns="http://www.w3.org/2000/svg">
<path d="M28 0.789062C12.5603 0.789062 0 13.3494 0 28.7891C0 44.2287 12.5603 56.7891 28 56.7891C43.4397 56.7891 56 44.2287 56 28.7891C56 13.3494 43.4397 0.789062 28 0.789062ZM28 52.1224C15.134 52.1224 4.66667 41.6551 4.66667 28.7891C4.66667 15.9231 15.134 5.45573 28 5.45573C40.866 5.45573 51.3333 15.9231 51.3333 28.7891C51.3333 41.6551 40.866 52.1224 28 52.1224Z" fill="#F0F0F0"/>
<path d="M36.7067 20.2958L26.6757 32.3323L21.4817 27.1394C20.5717 26.2283 19.0924 26.2283 18.1824 27.1394C17.2712 28.0506 17.2712 29.5276 18.1824 30.4388L25.1824 37.4388C25.6222 37.8774 26.2161 38.1224 26.8332 38.1224C26.8682 38.1224 26.9044 38.1224 26.9394 38.1201C27.5939 38.0909 28.2064 37.7864 28.6264 37.2824L40.2931 23.2824C41.1179 22.2919 40.9837 20.8219 39.9944 19.9959C39.0039 19.1723 37.5316 19.3053 36.7067 20.2958Z" fill="#F0F0F0"/>
</svg>
