<svg width="40" height="41" viewBox="0 0 40 41" fill="none" xmlns="http://www.w3.org/2000/svg">
<path d="M28.9027 40.3109C26.9873 40.3109 25.0574 39.7636 23.3724 38.6259C15.7249 33.4988 6.8101 24.584 1.68351 16.937C-0.952045 13.0053 -0.447958 7.74836 2.87889 4.42189L5.62966 1.67112C7.50189 -0.201122 10.5553 -0.201122 12.4273 1.67112L17.1944 6.43823C17.7849 7.02869 18.1162 7.80643 18.1162 8.64169C18.1162 9.47695 17.7849 10.2547 17.1944 10.8451L14.8182 13.2214C14.4581 13.5815 14.2565 14.0712 14.2565 14.5896C14.2565 15.1081 14.4581 15.5833 14.8182 15.9578L24.3524 25.4921C25.0869 26.2266 26.3543 26.2266 27.0743 25.4921L29.4506 23.1158C30.6315 21.9348 32.691 21.9348 33.872 23.1158L38.6391 27.8829C39.5896 28.8334 40.0649 30.0864 39.9929 31.4113C39.9208 32.7363 39.316 34.0036 38.2358 35.0838L35.8883 37.4313C33.9873 39.3324 31.4669 40.3117 28.9178 40.3117L28.9027 40.3109ZM9.01392 3.15416C8.52426 3.15416 8.0346 3.34138 7.66015 3.71585L4.90938 6.46662C2.56186 8.81414 2.20184 12.5444 4.07408 15.3381C9.01402 22.6976 17.5975 31.2954 24.9712 36.2353C27.7652 38.1075 31.4951 37.7475 33.8428 35.4L36.1903 33.0525C36.752 32.4908 37.0688 31.8715 37.112 31.2667C37.1408 30.7626 36.9536 30.3017 36.5935 29.9273L31.8264 25.1602C31.74 25.0738 31.5672 25.0738 31.4808 25.1602L29.1045 27.5365C27.2899 29.3511 24.1217 29.3511 22.3068 27.5365L12.7726 18.0022C11.8653 17.0949 11.3612 15.8851 11.3612 14.6034C11.3612 13.3217 11.8653 12.1119 12.7726 11.2046L15.1489 8.82829C15.2353 8.74188 15.2353 8.56906 15.1489 8.48265L10.3818 3.71553C10.0073 3.34108 9.50326 3.15384 9.01356 3.15384L9.01392 3.15416Z" fill="#F0F0F0"/>
</svg>
