<svg width="24" height="24" viewBox="0 0 24 24" fill="none" xmlns="http://www.w3.org/2000/svg">
<path d="M20.6412 23.9999C19.744 23.9999 18.9005 23.6505 18.2659 23.016L10.2877 15.0378C10.2274 14.9775 10.1895 14.8984 10.1802 14.8137L9.96321 12.8472C9.95071 12.7341 9.99024 12.6214 10.0709 12.541L12.5413 10.0706C12.6217 9.9901 12.7344 9.95057 12.8475 9.96291L14.814 10.1799C14.8987 10.1893 14.9778 10.2273 15.0381 10.2874L23.0163 18.2656C23.6506 18.9 24.0002 19.7436 24.0002 20.6409C24.0002 21.5382 23.6508 22.3816 23.0163 23.0161C22.3818 23.6506 21.5383 23.9999 20.6412 23.9999ZM10.9113 14.6008L18.7964 22.4858C19.8136 23.5032 21.4688 23.5032 22.4861 22.4858C23.5034 21.4685 23.5034 19.8134 22.4861 18.7961L14.601 10.911L12.9444 10.7282L10.7285 12.9441L10.9113 14.6008Z" fill="#F0F0F0"/>
<path d="M20.1179 21.8569C20.022 21.8569 19.926 21.8203 19.8528 21.7471L12.5756 14.4699C12.4292 14.3235 12.4292 14.086 12.5756 13.9396C12.722 13.7932 12.9595 13.7932 13.1059 13.9396L20.3831 21.2168C20.5295 21.3632 20.5295 21.6007 20.3831 21.7471C20.3099 21.8203 20.214 21.8569 20.1179 21.8569Z" fill="#F0F0F0"/>
<path d="M21.4822 20.4924C21.3862 20.4924 21.2903 20.4558 21.217 20.3826L13.9399 13.1054C13.7935 12.959 13.7935 12.7215 13.9399 12.5751C14.0863 12.4287 14.3238 12.4287 14.4702 12.5751L21.7473 19.8523C21.8937 19.9987 21.8937 20.2362 21.7473 20.3826C21.6742 20.4558 21.5781 20.4924 21.4822 20.4924Z" fill="#F0F0F0"/>
<path d="M11.0359 12.4812C10.94 12.4812 10.844 12.4446 10.7708 12.3714L2.25617 3.85677L0.95308 3.3021C0.876207 3.26929 0.812459 3.21195 0.771992 3.13882L0.0479499 1.83152C-0.0331416 1.68527 -0.00736106 1.50293 0.110761 1.38465L1.3851 0.110316C1.50338 -0.00796213 1.68556 -0.0335864 1.83196 0.047505L3.13927 0.771547C3.21239 0.812014 3.26989 0.875763 3.30254 0.952635L3.85722 2.25572L12.3718 10.7703C12.5182 10.9167 12.5182 11.1542 12.3718 11.3006L11.3011 12.3714C11.2278 12.4446 11.1319 12.4812 11.0359 12.4812ZM1.36541 2.66243L2.61663 3.19507C2.66084 3.21382 2.701 3.24101 2.7349 3.27491L11.0358 11.5758L11.5762 11.0353L3.27551 2.73462C3.24161 2.70071 3.21442 2.66056 3.19567 2.61634L2.66303 1.36512L1.71571 0.840451L0.840896 1.71527L1.36541 2.66243Z" fill="#F0F0F0"/>
<path d="M15.5012 11.6567C15.4053 11.6567 15.3093 11.6201 15.236 11.5468C15.0896 11.4004 15.0896 11.1629 15.236 11.0165L17.1797 9.07269C17.2824 8.97004 17.435 8.93582 17.5716 8.98488C19.1103 9.53721 20.8514 9.14753 22.0068 7.99178C23.0163 6.98244 23.4414 5.52623 23.1646 4.14845L20.664 6.64901C20.5176 6.79541 20.2801 6.79541 20.1337 6.64901L17.3507 3.86596C17.2804 3.79565 17.2408 3.70019 17.2408 3.60081C17.2408 3.50144 17.2804 3.40598 17.3507 3.33567L19.8512 0.835112C18.4735 0.558245 17.0172 0.983389 16.0079 1.99289C14.8521 3.14848 14.4623 4.88937 15.0148 6.42808C15.0639 6.56464 15.0296 6.71729 14.927 6.81994L11.4087 10.3384C11.2623 10.4848 11.0248 10.4848 10.8784 10.3384C10.732 10.192 10.732 9.95454 10.8784 9.80814L14.2331 6.45323C13.9847 5.64029 13.9475 4.77687 14.1267 3.94112C14.3283 3.00177 14.7953 2.14461 15.4774 1.46244C16.1596 0.78027 17.0166 0.313096 17.956 0.111695C18.8705 -0.084393 19.8181 -0.021426 20.6964 0.293721C20.8173 0.337157 20.9076 0.439342 20.9356 0.564651C20.9637 0.68996 20.9256 0.820894 20.8348 0.911829L18.146 3.60066L20.3987 5.85341L23.0875 3.16458C23.1783 3.0738 23.3094 3.03567 23.4347 3.0638C23.56 3.09192 23.6622 3.18208 23.7056 3.30301C24.0209 4.18127 24.0839 5.1289 23.8878 6.0434C23.6863 6.98275 23.2193 7.83991 22.5371 8.52208C21.8549 9.20425 20.9979 9.67142 20.0586 9.87282C19.2228 10.052 18.3594 10.0148 17.5464 9.76657L15.7663 11.5468C15.6932 11.6201 15.5971 11.6567 15.5012 11.6567Z" fill="#F0F0F0"/>
<path d="M4.9912 24.0002C4.41809 24.0002 3.84732 23.9018 3.30312 23.7063C3.18219 23.6629 3.09203 23.5607 3.06391 23.4354C3.03578 23.3101 3.07391 23.1791 3.16469 23.0882L5.85352 20.3994L3.60077 18.1466L0.911939 20.8354C0.82116 20.9262 0.69007 20.9642 0.564761 20.9362C0.439453 20.9081 0.337112 20.8179 0.293832 20.697C-0.0214718 19.8187 -0.0844387 18.8711 0.111806 17.9566C0.313206 17.0173 0.78038 16.1601 1.46255 15.4779C2.14472 14.7958 3.00172 14.3286 3.94107 14.1272C4.77683 13.948 5.64024 13.985 6.45319 14.2336L9.80809 10.8788C9.95449 10.7324 10.192 10.7324 10.3384 10.8788C10.4848 11.0252 10.4848 11.2627 10.3384 11.4091L6.81989 14.9275C6.71724 15.0301 6.56459 15.0643 6.42803 15.0153C4.88933 14.463 3.14844 14.8528 1.99285 16.0084C0.983343 17.0177 0.558199 18.4739 0.835066 19.8517L3.33562 17.3512C3.40593 17.2808 3.5014 17.2413 3.60077 17.2413C3.70014 17.2413 3.79561 17.2808 3.86592 17.3512L6.64896 20.1342C6.79536 20.2806 6.79536 20.5181 6.64896 20.6645L4.14841 23.1651C5.52618 23.4418 6.98239 23.0168 7.99174 22.0073C9.14748 20.8517 9.53732 19.1108 8.98483 17.5721C8.93577 17.4355 8.96999 17.2829 9.07264 17.1802L11.0165 15.2365C11.1629 15.0901 11.4004 15.0901 11.5468 15.2365C11.6932 15.3829 11.6932 15.6204 11.5468 15.7668L9.76653 17.5469C10.015 18.3599 10.0521 19.2231 9.87278 20.0591C9.67122 20.9984 9.2042 21.8556 8.52203 22.5377C7.83987 23.2199 6.98286 23.6871 6.04351 23.8885C5.69555 23.9632 5.34291 24.0002 4.9912 24.0002Z" fill="#F0F0F0"/>
</svg>
