<svg width="24" height="28" viewBox="0 0 24 28" fill="none" xmlns="http://www.w3.org/2000/svg">
<path d="M23.9996 19.1155C23.9996 18.4409 23.6833 17.8396 23.1906 17.4501C23.682 17.0605 23.9996 16.4592 23.9996 15.7847C23.9996 14.6147 23.0481 13.6632 21.8768 13.6632H16.3906C16.8874 12.5122 17.3842 11.0233 17.452 9.57109C17.5416 7.67633 16.848 6.30001 15.4446 5.59295C14.9859 5.36222 14.5719 5.32285 14.2135 5.47623C13.5566 5.75718 13.3082 6.56748 13.0463 7.4253C12.9716 7.66961 12.8943 7.92343 12.8074 8.16096C11.9211 10.5973 9.89872 12.6183 7.55892 13.4529C7.49784 12.5883 6.77441 11.9029 5.89351 11.9029H0.457404C0.204949 11.9029 0 12.1078 0 12.3603V27.4222C0 27.6747 0.204949 27.8796 0.457404 27.8796H5.89351C6.77441 27.8796 7.49783 27.1942 7.55892 26.3296C7.98241 26.4748 8.41809 26.6499 8.8714 26.8345C10.1608 27.3571 11.4937 27.8973 12.9597 27.8973H20.2335C21.4035 27.8973 22.3563 26.9444 22.3563 25.7745C22.3563 25.3252 22.2152 24.9085 21.9763 24.5651C23.1015 24.5135 24 23.5824 24 22.445C24 21.7704 23.6838 21.1691 23.1911 20.7796C23.6824 20.3901 24 19.7888 24 19.1142L23.9996 19.1155ZM6.64922 26.2114C6.64922 26.6267 6.30989 26.9647 5.8932 26.9647H0.914705V12.8176H5.8932C6.30988 12.8176 6.64922 13.1556 6.64922 13.5709V26.2114ZM20.256 20.3222C20.0035 20.3222 19.7986 20.5272 19.7986 20.7796C19.7986 21.0321 20.0035 21.237 20.256 21.237H21.8766C22.5417 21.237 23.0846 21.7786 23.0846 22.445C23.0846 23.1101 22.543 23.653 21.8766 23.653H20.2329C19.9805 23.653 19.7755 23.858 19.7755 24.1104C19.7755 24.3629 19.9805 24.5678 20.2329 24.5678C20.898 24.5678 21.4409 25.1094 21.4409 25.7758C21.4409 26.4409 20.8994 26.9838 20.2329 26.9838H12.9591C11.6724 26.9838 10.4223 26.4776 9.21442 25.9876C8.64707 25.7582 8.10416 25.5383 7.56395 25.37V14.4169C8.93075 13.9893 10.212 13.2116 11.2871 12.1529C12.3512 11.1051 13.175 9.83193 13.6691 8.47324C13.7641 8.214 13.8442 7.94933 13.9229 7.6928C14.1034 7.10103 14.3084 6.43052 14.5744 6.31652C14.6966 6.26358 14.892 6.33823 15.0332 6.40881C17.7369 7.77289 16.1367 12.0197 15.3888 13.6622H14.0329C13.7804 13.6622 13.5755 13.8671 13.5755 14.1196C13.5755 14.372 13.7804 14.577 14.0329 14.577H21.8766C22.5416 14.577 23.0846 15.1185 23.0846 15.7836C23.0846 16.4487 22.543 16.9916 21.8766 16.9916H20.2559C20.0035 16.9916 19.7985 17.1966 19.7985 17.449C19.7985 17.7015 20.0035 17.9064 20.2559 17.9064H21.8766C22.5416 17.9064 23.0846 18.448 23.0846 19.1144C23.0846 19.7795 22.543 20.3224 21.8766 20.3224L20.256 20.3222ZM14.4915 2.91347V0.559943C14.4915 0.307488 14.6965 0.102539 14.9489 0.102539C15.2014 0.102539 15.4063 0.307488 15.4063 0.559943V2.91347C15.4063 3.16592 15.2014 3.37087 14.9489 3.37087C14.6965 3.37087 14.4915 3.16592 14.4915 2.91347ZM8.99739 3.21208C8.81823 3.03292 8.81823 2.7438 8.99739 2.56464C9.17655 2.38549 9.46567 2.38548 9.64482 2.56464L11.3102 4.23005C11.4894 4.40921 11.4894 4.69833 11.3102 4.87748C11.2206 4.96706 11.1039 5.01185 10.9872 5.01185C10.8705 5.01185 10.7524 4.96706 10.6642 4.87748L8.99875 3.21208H8.99739ZM6.53254 8.51649C6.53254 8.26404 6.73748 8.05909 6.98994 8.05909H9.34347C9.59592 8.05909 9.80087 8.26404 9.80087 8.51649C9.80087 8.76895 9.59592 8.9739 9.34347 8.9739H6.98994C6.73748 8.9739 6.53254 8.76895 6.53254 8.51649ZM18.5879 4.87748C18.4087 4.69832 18.4087 4.4092 18.5879 4.23005L20.2533 2.56464C20.4324 2.38548 20.7216 2.38548 20.9007 2.56464C21.0799 2.7438 21.0799 3.03292 20.9007 3.21208L19.2353 4.87748C19.1457 4.96706 19.029 5.01185 18.9123 5.01185C18.7955 5.01185 18.6775 4.96706 18.5892 4.87748H18.5879ZM20.5519 8.05895H22.9054C23.1578 8.05895 23.3628 8.2639 23.3628 8.51635C23.3628 8.76881 23.1578 8.97376 22.9054 8.97376H20.5519C20.2994 8.97376 20.0944 8.76881 20.0944 8.51635C20.0944 8.2639 20.2994 8.05895 20.5519 8.05895ZM3.78106 22.894C3.06576 22.894 2.48348 23.4763 2.48348 24.1916C2.48348 24.9069 3.06576 25.4892 3.78106 25.4892C4.49635 25.4892 5.07863 24.9069 5.07863 24.1916C5.07863 23.4763 4.49635 22.894 3.78106 22.894ZM3.78106 24.5743C3.57068 24.5743 3.39829 24.4033 3.39829 24.1916C3.39829 23.9812 3.56931 23.8088 3.78106 23.8088C3.99144 23.8088 4.16382 23.9798 4.16382 24.1916C4.16382 24.4019 3.99281 24.5743 3.78106 24.5743Z" fill="#F0F0F0"/>
</svg>
