<svg width="116" height="20" viewBox="0 0 116 20" fill="none" xmlns="http://www.w3.org/2000/svg">
<g clip-path="url(#clip0_67_537)">
<path d="M9.07088 1.40141C9.41462 0.584947 10.5854 0.584948 10.9291 1.40141L12.9579 6.2203C13.1029 6.5645 13.4306 6.79967 13.8067 6.82946L19.0727 7.24654C19.9649 7.31721 20.3267 8.4172 19.6469 8.99246L15.6348 12.3877C15.3482 12.6303 15.223 13.0108 15.3106 13.3734L16.5363 18.4501C16.744 19.3102 15.7969 19.9901 15.033 19.5292L10.5245 16.8086C10.2025 16.6143 9.7975 16.6143 9.47548 16.8086L4.96699 19.5292C4.20311 19.9901 3.25596 19.3102 3.46363 18.4501L4.68942 13.3734C4.77698 13.0108 4.65182 12.6303 4.36526 12.3877L0.353062 8.99246C-0.326718 8.4172 0.0350679 7.31721 0.927291 7.24654L6.19336 6.82946C6.5695 6.79967 6.89716 6.5645 7.04207 6.2203L9.07088 1.40141Z" fill="black"/>
<path d="M33.0709 1.40141C33.4146 0.584947 34.5854 0.584948 34.9291 1.40141L36.9579 6.2203C37.1029 6.5645 37.4306 6.79967 37.8067 6.82946L43.0727 7.24654C43.9649 7.31721 44.3267 8.4172 43.6469 8.99246L39.6348 12.3877C39.3482 12.6303 39.223 13.0108 39.3106 13.3734L40.5363 18.4501C40.744 19.3102 39.7969 19.9901 39.033 19.5292L34.5245 16.8086C34.2025 16.6143 33.7975 16.6143 33.4755 16.8086L28.967 19.5292C28.2031 19.9901 27.256 19.3102 27.4636 18.4501L28.6894 13.3734C28.777 13.0108 28.6518 12.6303 28.3653 12.3877L24.3531 8.99246C23.6733 8.4172 24.0351 7.31721 24.9273 7.24654L30.1934 6.82946C30.5695 6.79967 30.8972 6.5645 31.0421 6.2203L33.0709 1.40141Z" fill="black"/>
<path d="M57.0709 1.40141C57.4146 0.584947 58.5854 0.584948 58.9291 1.40141L60.9579 6.2203C61.1029 6.5645 61.4306 6.79967 61.8067 6.82946L67.0727 7.24654C67.9649 7.31721 68.3267 8.4172 67.6469 8.99246L63.6348 12.3877C63.3482 12.6303 63.223 13.0108 63.3106 13.3734L64.5363 18.4501C64.744 19.3102 63.7969 19.9901 63.033 19.5292L58.5245 16.8086C58.2025 16.6143 57.7975 16.6143 57.4755 16.8086L52.967 19.5292C52.2031 19.9901 51.256 19.3102 51.4636 18.4501L52.6894 13.3734C52.777 13.0108 52.6518 12.6303 52.3653 12.3877L48.3531 8.99246C47.6733 8.4172 48.0351 7.31721 48.9273 7.24654L54.1934 6.82946C54.5695 6.79967 54.8972 6.5645 55.0421 6.2203L57.0709 1.40141Z" fill="black"/>
<path d="M81.0709 1.40141C81.4146 0.584947 82.5854 0.584948 82.9291 1.40141L84.9579 6.2203C85.1029 6.5645 85.4306 6.79967 85.8067 6.82946L91.0727 7.24654C91.9649 7.31721 92.3267 8.4172 91.6469 8.99246L87.6348 12.3877C87.3482 12.6303 87.223 13.0108 87.3106 13.3734L88.5363 18.4501C88.744 19.3102 87.7969 19.9901 87.033 19.5292L82.5245 16.8086C82.2025 16.6143 81.7975 16.6143 81.4755 16.8086L76.967 19.5292C76.2031 19.9901 75.256 19.3102 75.4636 18.4501L76.6894 13.3734C76.777 13.0108 76.6518 12.6303 76.3653 12.3877L72.3531 8.99246C71.6733 8.4172 72.0351 7.31721 72.9273 7.24654L78.1934 6.82946C78.5695 6.79967 78.8972 6.5645 79.0421 6.2203L81.0709 1.40141Z" fill="black"/>
<path d="M105.071 1.40141C105.415 0.584947 106.585 0.584948 106.929 1.40141L108.958 6.2203C109.103 6.5645 109.431 6.79967 109.807 6.82946L115.073 7.24654C115.965 7.31721 116.327 8.4172 115.647 8.99246L111.635 12.3877C111.348 12.6303 111.223 13.0108 111.311 13.3734L112.536 18.4501C112.744 19.3102 111.797 19.9901 111.033 19.5292L106.525 16.8086C106.202 16.6143 105.797 16.6143 105.475 16.8086L100.967 19.5292C100.203 19.9901 99.256 19.3102 99.4636 18.4501L100.689 13.3734C100.777 13.0108 100.652 12.6303 100.365 12.3877L96.3531 8.99246C95.6733 8.4172 96.0351 7.31721 96.9273 7.24654L102.193 6.82946C102.569 6.79967 102.897 6.5645 103.042 6.2203L105.071 1.40141Z" fill="black"/>
</g>
<defs>
<clipPath id="clip0_67_537">
<rect width="116" height="18.8889" fill="white" transform="translate(0 0.789062)"/>
</clipPath>
</defs>
</svg>
